<svg xmlns="http://www.w3.org/2000/svg" viewBox="0 0 430.74 117.23"><switch><g><g fill="#59504E"><path d="M21.35 0H1.48v50.85H20.9c16.28 0 26.39-9.83 26.39-25.65C47.3 9.42 37.6 0 21.35 0zm13.41 25.58c0 9.5-4.92 14.52-14.21 14.52l-7.04-.07V10.69h6.73c9.36.07 14.52 5.36 14.52 14.89zM81.39.75v9.71c0 .41-.34.75-.75.75H62.41v10.73h16.67c.41 0 .75.34.75.75v9.63c0 .41-.34.75-.75.75H62.41V50.1c0 .41-.34.75-.75.75H51.14c-.41 0-.75-.34-.75-.75V.75c0-.41.34-.75.75-.75h29.49c.42 0 .76.34.76.75zM136.67.7l3.26 49.35a.76.76 0 01-.2.56c-.14.15-.34.24-.55.24h-9.71c-.4 0-.73-.31-.75-.71l-1.41-26.31-.02-1.51-9.87 25.38c-.11.29-.39.48-.7.48h-9.41c-.31 0-.59-.19-.7-.48l-9.58-25.05-.02 1.6-1.41 25.9c-.02.4-.35.71-.75.71h-9.49c-.21 0-.41-.09-.55-.24a.76.76 0 01-.2-.56L87.74.7c.02-.4.35-.7.75-.7h11.19c.31 0 .59.19.7.49l11.97 31.91L124.25.49c.11-.29.39-.49.7-.49h10.97c.39 0 .72.31.75.7zm40.9 39.47v9.93c0 .41-.34.75-.75.75h-29.79c-.41 0-.75-.34-.75-.75V.75c0-.41.34-.75.75-.75h10.52c.41 0 .75.34.75.75v38.67h18.52c.42 0 .75.34.75.75zM54.55 111.28h-9.71c-.4 0-.73-.31-.75-.71l-1.41-26.31-.02-1.51-9.87 25.38c-.11.29-.39.48-.7.48h-9.41c-.31 0-.59-.19-.7-.48L12.4 83.08l-.02 1.6-1.41 25.9c-.02.4-.35.71-.75.71H.75c-.21 0-.41-.09-.55-.24a.76.76 0 01-.2-.56l3.11-49.35c.02-.4.35-.7.75-.7h11.19c.31 0 .59.19.7.49l11.97 31.91 11.9-31.91c.11-.29.39-.49.7-.49h10.97c.4 0 .72.31.75.7l3.26 49.35a.76.76 0 01-.2.56c-.14.14-.34.23-.55.23zm-9-1.5h8.2l-3.16-47.85h-9.74l-12.42 33.3c-.11.29-.39.49-.7.49-.31 0-.59-.19-.7-.49l-12.5-33.31H4.57l-3.02 47.85h7.98l1.37-25.15.07-7.01c0-.38.29-.69.66-.74.38-.05.72.2.82.56l1.11 4.45 9.65 25.22h8.38l9.97-25.61 1.09-4.07c.1-.36.45-.6.82-.55.37.05.65.36.66.74l.07 6.6 1.35 25.57zm64.07 1.5H98.95c-.32 0-.6-.2-.71-.49l-3.3-9.07H75.98l-3.3 9.07c-.11.3-.39.49-.71.49h-10.3a.75.75 0 01-.7-1.01l17.86-49.35c.11-.3.39-.49.71-.49h12.15c.32 0 .6.2.71.49l17.93 49.35c.08.23.05.49-.09.69-.15.2-.38.32-.62.32zm-10.15-1.5h9.08L91.16 61.92h-11.1l-17.32 47.85h8.71l3.3-9.07c.11-.3.39-.49.71-.49h20.01c.32 0 .6.2.71.49l3.29 9.08zm-7.12-16.73H78.57a.75.75 0 01-.7-1.01l6.89-19.12a.755.755 0 011.42 0l6.89 19.12c.08.23.05.49-.09.69-.15.2-.38.32-.63.32zm-12.71-1.5h11.65l-5.83-16.16-5.82 16.16zM141.02 70.72c0 6.31-3.75 10.06-10.09 10.06h-6.49V60.66h6.55c6.44 0 10.03 3.72 10.03 10.06zm-1.96.06c0-5.44-2.96-8.36-8.24-8.36h-4.44V79l4.5.03c5.07-.01 8.18-2.82 8.18-8.25zm17 2.84H145c.12 3.87 2.11 5.83 4.83 5.83 2.23 0 3.74-1 4.32-2.93l1.69.33c-.75 2.9-3.11 4.26-6.04 4.26-3.99 0-6.73-2.75-6.7-7.76 0-4.8 2.78-7.82 6.79-7.82 3.5 0 6.19 2.2 6.19 7.13.01.35.01.65-.02.96zm-11-1.57h9.24c-.18-3.5-2.02-4.86-4.47-4.86-2.56-.01-4.4 1.66-4.77 4.86zm27.18 1.14c0 5.07-2.78 7.91-6.49 7.91-2.26 0-3.9-.91-4.8-2.51v8.21h-1.87V65.86h1.63l.15 2.9c.91-1.99 2.69-3.23 5.16-3.23 3.8-.01 6.22 2.59 6.22 7.66zm-1.93.09c.03-4.08-1.75-6.07-4.68-6.07-2.38 0-4.08 1.54-4.68 3.87V76c.57 2.2 2.14 3.41 4.53 3.41 2.96 0 4.83-2.11 4.83-6.13zm17.6 7.46c-.48.18-.94.27-1.39.27-1.39 0-2.2-.66-2.23-2.2-1.18 1.54-2.87 2.33-5.04 2.33-2.75 0-4.59-1.42-4.59-4.11 0-2.96 2.29-4.59 6.37-4.59 1.24 0 2.17.09 3.17.21v-1.63c0-2.63-1.21-3.8-3.68-3.8-1.9 0-3.29.75-3.68 2.72l-1.69-.3c.48-2.63 2.45-4.11 5.47-4.11 3.71 0 5.47 1.72 5.47 5.53v7.22c0 .72.21 1.15.85 1.15.39 0 .6-.06.82-.15l.15 1.46zm-3.71-3.89v-2.72c-.79-.12-1.84-.18-3.14-.18-2.93 0-4.53.97-4.53 2.99 0 1.78 1.21 2.63 3.08 2.63 1.9 0 3.5-.76 4.59-2.72zm14.76-11.08l-.33 1.96c-.51-.15-.97-.21-1.57-.21-2.57 0-4.08 1.87-4.47 4.23v9.03h-1.87V65.89h1.69l.15 2.9c.72-1.72 2.2-3.26 4.77-3.26.64-.01 1.12.05 1.63.24zm13.02 12.2c-.54 2.14-1.81 3.14-4.26 3.14-2.6 0-4.08-1.39-4.08-4.53v-9h-3.11v-1.69h3.17v-4.26h1.81v4.26h5.65v1.69h-5.65v8.94c0 1.99.91 2.93 2.36 2.93 1.36 0 2.08-.54 2.48-1.9l1.63.42zm25.15-6.53v9.33h-1.87v-9c0-2.87-1.3-4.53-3.8-4.53-2.6 0-4.2 2.05-4.53 4.05v9.48h-1.87v-9c0-2.87-1.3-4.53-3.83-4.53s-4.08 1.93-4.47 3.9v9.63h-1.87V65.89h1.69l.15 2.54c.82-1.54 2.42-2.9 5.01-2.9 2.51 0 4.2 1.18 4.86 3.41.79-1.72 2.45-3.41 5.34-3.41 3.32-.01 5.19 2.08 5.19 5.91zm15.19 2.18h-11.05c.12 3.87 2.11 5.83 4.83 5.83 2.23 0 3.74-1 4.32-2.93l1.69.33c-.75 2.9-3.11 4.26-6.04 4.26-3.99 0-6.73-2.75-6.7-7.76 0-4.8 2.78-7.82 6.79-7.82 3.5 0 6.19 2.2 6.19 7.13 0 .35 0 .65-.03.96zm-11-1.57h9.24c-.18-3.5-2.02-4.86-4.47-4.86-2.56-.01-4.4 1.66-4.77 4.86zm26.28-.52v9.24h-1.87v-8.79c0-3.02-1.33-4.74-3.93-4.74-2.66 0-4.2 1.96-4.59 3.9v9.63h-1.87V65.89h1.69l.15 2.54c.82-1.51 2.42-2.9 5.07-2.9 3.38-.01 5.35 2.11 5.35 6zm12.5 6.44c-.54 2.14-1.81 3.14-4.26 3.14-2.6 0-4.08-1.39-4.08-4.53v-9h-3.11v-1.69h3.17v-4.26h1.81v4.26h5.65v1.69h-5.65v8.94c0 1.99.91 2.93 2.36 2.93 1.36 0 2.08-.54 2.48-1.9l1.63.42zm7.63-4.66c0-4.71 2.72-7.79 7.01-7.79 4.26 0 6.98 2.93 6.98 7.76 0 4.74-2.75 7.82-7.01 7.82-4.29.01-6.98-2.92-6.98-7.79zm12.08 0c0-3.81-1.93-6.13-5.1-6.13-3.14 0-5.04 2.29-5.04 6.1 0 3.87 1.96 6.16 5.07 6.16 3.14 0 5.07-2.32 5.07-6.13zm12.84-13.1l-1.36 1.09c-.39-.69-1-1.06-1.96-1.06-1.48 0-2.39.75-2.39 2.93v2.72h3.83v1.66h-3.83v13.23h-1.87V67.55h-2.29v-1.66h2.29v-2.54c0-3.23 1.6-4.83 4.23-4.83 1.72 0 2.71.6 3.35 1.69zM126.37 92.59v7.73h9.51v1.75h-9.51v8.88h-1.93V90.84h12.38v1.75h-10.45zm24.52 18.33c-.48.18-.94.27-1.39.27-1.39 0-2.2-.66-2.23-2.2-1.18 1.54-2.87 2.33-5.04 2.33-2.75 0-4.59-1.42-4.59-4.11 0-2.96 2.29-4.59 6.37-4.59 1.24 0 2.17.09 3.17.21v-1.63c0-2.63-1.21-3.8-3.68-3.8-1.9 0-3.29.75-3.68 2.72l-1.69-.3c.48-2.63 2.45-4.11 5.47-4.11 3.71 0 5.47 1.72 5.47 5.53v7.22c0 .72.21 1.15.85 1.15.39 0 .6-.06.82-.15l.15 1.46zm-3.71-3.89v-2.72c-.79-.12-1.84-.18-3.14-.18-2.93 0-4.53.97-4.53 2.99 0 1.78 1.21 2.63 3.08 2.63 1.9 0 3.5-.76 4.59-2.72zm28.17-5.41v9.33h-1.87v-9c0-2.87-1.3-4.53-3.8-4.53-2.6 0-4.2 2.05-4.53 4.05v9.48h-1.87v-9c0-2.87-1.3-4.53-3.83-4.53s-4.08 1.93-4.47 3.9v9.63h-1.87V96.07h1.69l.15 2.54c.82-1.54 2.42-2.9 5.01-2.9 2.51 0 4.2 1.18 4.86 3.41.79-1.72 2.45-3.41 5.34-3.41 3.32-.01 5.19 2.08 5.19 5.91zm3.53-10.54c0-.88.66-1.51 1.48-1.51s1.45.63 1.45 1.51-.63 1.48-1.45 1.48-1.48-.6-1.48-1.48zm.55 4.99h1.87v14.89h-1.87V96.07zm6.25-7.13h1.87v22.01h-1.87V88.94zm18.11 7.13l-5.92 14.89-1.12 2.6c-1.06 2.51-2.14 3.68-4.17 3.68-1.39 0-2.29-.39-2.99-1.36l1.12-1.18c.42.6.94.88 1.87.88 1.33 0 1.9-.94 2.69-2.63l.94-2.05-5.95-14.83h2.08l3.44 9 1.33 3.56 1.33-3.56 3.41-9h1.94zm18.78 14.85c-.48.18-.94.27-1.39.27-1.39 0-2.2-.66-2.23-2.2-1.18 1.54-2.87 2.33-5.04 2.33-2.75 0-4.59-1.42-4.59-4.11 0-2.96 2.29-4.59 6.37-4.59 1.24 0 2.17.09 3.17.21v-1.63c0-2.63-1.21-3.8-3.68-3.8-1.9 0-3.29.75-3.68 2.72l-1.69-.3c.48-2.63 2.45-4.11 5.47-4.11 3.71 0 5.47 1.72 5.47 5.53v7.22c0 .72.21 1.15.85 1.15.39 0 .6-.06.82-.15l.15 1.46zm-3.71-3.89v-2.72c-.79-.12-1.84-.18-3.14-.18-2.93 0-4.53.97-4.53 2.99 0 1.78 1.21 2.63 3.08 2.63 1.9 0 3.5-.76 4.59-2.72zm18.18-5.32v9.24h-1.87v-8.79c0-3.02-1.33-4.74-3.93-4.74-2.66 0-4.2 1.96-4.59 3.9v9.63h-1.87V96.07h1.69l.15 2.54c.82-1.51 2.42-2.9 5.07-2.9 3.39-.01 5.35 2.11 5.35 6zm14.76-12.77v22.01h-1.63l-.15-2.78c-.91 1.96-2.66 3.11-5.13 3.11-3.77 0-6.25-2.6-6.25-7.7 0-5.07 2.87-7.88 6.55-7.88 2.27 0 3.87.94 4.74 2.63v-9.39h1.87zm-1.87 16.91v-4.83c-.6-2.33-2.17-3.62-4.47-3.62-2.93 0-4.89 2.11-4.92 6.13 0 4.05 1.84 6.07 4.71 6.07 2.45-.01 4.08-1.42 4.68-3.75zm29.56 5.1h-1.84V95.04l.06-1.42-6.86 17h-1.9l-6.85-17.03.06 1.36v16h-1.81V90.84h2.57l6.7 16.76.36.97.36-.94 6.67-16.79h2.48v20.11zm15.64-7.15h-11.05c.12 3.87 2.11 5.83 4.83 5.83 2.23 0 3.74-1 4.32-2.93l1.69.33c-.75 2.9-3.11 4.26-6.04 4.26-3.99 0-6.73-2.75-6.7-7.76 0-4.8 2.78-7.82 6.79-7.82 3.5 0 6.19 2.2 6.19 7.13 0 .35 0 .66-.03.96zm-10.99-1.57h9.24c-.18-3.5-2.02-4.86-4.47-4.86-2.56-.01-4.41 1.66-4.77 4.86zm26.06-13.29v22.01h-1.63l-.15-2.78c-.91 1.96-2.66 3.11-5.13 3.11-3.77 0-6.25-2.6-6.25-7.7 0-5.07 2.87-7.88 6.55-7.88 2.27 0 3.87.94 4.74 2.63v-9.39h1.87zm-1.87 16.91v-4.83c-.6-2.33-2.17-3.62-4.47-3.62-2.93 0-4.89 2.11-4.92 6.13 0 4.05 1.84 6.07 4.71 6.07 2.44-.01 4.07-1.42 4.68-3.75zm5.61-14.77c0-.88.66-1.51 1.48-1.51s1.45.63 1.45 1.51-.63 1.48-1.45 1.48-1.48-.6-1.48-1.48zm.55 4.99h1.87v14.89h-1.87V96.07zm5.01 7.43c0-4.8 2.66-7.79 6.61-7.79 3.17 0 5.13 1.33 5.8 4.38l-1.75.33c-.48-2.17-1.9-3.02-3.99-3.02-3.05 0-4.77 2.33-4.77 6.07 0 3.99 1.78 6.13 4.74 6.13 2.29 0 3.71-1.03 4.11-3.02l1.72.3c-.6 2.93-2.75 4.41-5.89 4.41-4.01 0-6.58-2.75-6.58-7.79zm27.75 7.42c-.48.18-.94.27-1.39.27-1.39 0-2.2-.66-2.23-2.2-1.18 1.54-2.87 2.33-5.04 2.33-2.75 0-4.59-1.42-4.59-4.11 0-2.96 2.29-4.59 6.37-4.59 1.24 0 2.17.09 3.17.21v-1.63c0-2.63-1.21-3.8-3.68-3.8-1.9 0-3.29.75-3.68 2.72l-1.69-.3c.48-2.63 2.45-4.11 5.47-4.11 3.71 0 5.47 1.72 5.47 5.53v7.22c0 .72.21 1.15.85 1.15.39 0 .6-.06.82-.15l.15 1.46zm-3.72-3.89v-2.72c-.79-.12-1.84-.18-3.14-.18-2.93 0-4.53.97-4.53 2.99 0 1.78 1.21 2.63 3.08 2.63 1.91 0 3.51-.76 4.59-2.72zm6.04-18.09h1.87v22.01h-1.87V88.94zm25.91 20.2v1.81H363.1V90.84h1.93v18.3h10.45zm12.92-5.34h-11.05c.12 3.87 2.11 5.83 4.83 5.83 2.23 0 3.74-1 4.32-2.93l1.69.33c-.75 2.9-3.11 4.26-6.04 4.26-3.99 0-6.73-2.75-6.7-7.76 0-4.8 2.78-7.82 6.79-7.82 3.5 0 6.19 2.2 6.19 7.13.01.35.01.66-.03.96zm-10.99-1.57h9.24c-.18-3.5-2.02-4.86-4.47-4.86-2.56-.01-4.4 1.66-4.77 4.86zm26.03 8.69c-.48.18-.94.27-1.39.27-1.39 0-2.2-.66-2.23-2.2-1.18 1.54-2.87 2.33-5.04 2.33-2.75 0-4.59-1.42-4.59-4.11 0-2.96 2.29-4.59 6.37-4.59 1.24 0 2.17.09 3.17.21v-1.63c0-2.63-1.21-3.8-3.68-3.8-1.9 0-3.29.75-3.68 2.72l-1.69-.3c.48-2.63 2.45-4.11 5.47-4.11 3.71 0 5.47 1.72 5.47 5.53v7.22c0 .72.21 1.15.85 1.15.39 0 .6-.06.82-.15l.15 1.46zm-3.71-3.89v-2.72c-.79-.12-1.84-.18-3.14-.18-2.93 0-4.53.97-4.53 2.99 0 1.78 1.21 2.63 3.08 2.63 1.9 0 3.5-.76 4.59-2.72zm17.39-10.96l-6.19 14.89h-1.63l-6.07-14.89h2.05l3.65 9.27 1.24 3.53 1.3-3.53 3.71-9.27h1.94zm13.59 7.73h-11.05c.12 3.87 2.11 5.83 4.83 5.83 2.23 0 3.74-1 4.32-2.93l1.69.33c-.75 2.9-3.11 4.26-6.04 4.26-3.99 0-6.73-2.75-6.7-7.76 0-4.8 2.78-7.82 6.79-7.82 3.5 0 6.19 2.2 6.19 7.13 0 .35 0 .66-.03.96zm-10.99-1.57h9.24c-.18-3.5-2.02-4.86-4.47-4.86-2.57-.01-4.41 1.66-4.77 4.86z"/></g></g></switch></svg>