<svg xmlns="http://www.w3.org/2000/svg" viewBox="0 0 350 132.64"><switch><g><g fill="#59504E"><path d="M166.44 112.86h-2.54v-7.53l.08-1.92-3.1 9.25h-2.51l-3.12-9.19.08 1.86v7.53h-2.46V99.98h3.71l3.12 9.29 3.08-9.29h3.66v12.88zM178.18 110.37h-5.24l-.89 2.5h-2.71l4.68-12.89h3.17l4.66 12.89h-2.77l-.9-2.5zm-.81-2.27l-1.8-5.01-1.82 5.01h3.62zM183.69 109.44l2.59-.5c.29 1.3.99 1.86 2.75 1.86 1.61 0 2.44-.46 2.44-1.47 0-.99-.6-1.39-3.27-1.84-2.61-.43-4.32-1.3-4.32-3.81s1.97-3.99 5.01-3.99c2.84 0 4.51 1.2 4.99 3.64l-2.61.5c-.27-1.32-1.12-1.78-2.52-1.78-1.41 0-2.15.54-2.15 1.33 0 .91.52 1.24 3.19 1.7 3.06.56 4.37 1.68 4.37 4 0 2.57-1.88 4.06-5.26 4.06-3.19.01-4.74-1.13-5.21-3.7zM196.83 109.44l2.59-.5c.29 1.3.99 1.86 2.75 1.86 1.61 0 2.44-.46 2.44-1.47 0-.99-.6-1.39-3.27-1.84-2.61-.43-4.32-1.3-4.32-3.81s1.97-3.99 5.01-3.99c2.84 0 4.51 1.2 4.99 3.64l-2.61.5c-.27-1.32-1.12-1.78-2.52-1.78-1.41 0-2.15.54-2.15 1.33 0 .91.52 1.24 3.19 1.7 3.06.56 4.37 1.68 4.37 4 0 2.57-1.88 4.06-5.26 4.06-3.2.01-4.75-1.13-5.21-3.7zM218.01 110.37h-5.24l-.89 2.5h-2.71l4.68-12.89h3.17l4.66 12.89h-2.77l-.9-2.5zm-.81-2.27l-1.8-5.01-1.82 5.01h3.62zM223.56 106.48c0-4.16 2.52-6.79 6.09-6.79 3.02 0 4.84 1.37 5.36 4.3l-2.55.46c-.37-1.62-1.3-2.28-2.77-2.28-1.88 0-3.25 1.47-3.25 4.22 0 2.84 1.3 4.26 3.17 4.26 1.61 0 2.5-.6 2.96-2.23l2.5.48c-.56 2.82-2.53 4.26-5.57 4.26-3.62-.01-5.94-2.43-5.94-6.68zM249.64 99.98v12.89h-2.75v-5.2h-5.75v5.2h-2.75V99.98h2.75v5.01h5.75v-5.01h2.75zM264.79 99.98v7.62c0 3.52-2.19 5.55-5.48 5.55-3.39 0-5.49-1.95-5.49-5.46v-7.72h2.73v7.49c0 2.19 1.14 3.11 2.88 3.11 1.61 0 2.69-.91 2.69-3.15l-.02-7.45h2.69zM268.09 109.44l2.59-.5c.29 1.3.99 1.86 2.75 1.86 1.61 0 2.44-.46 2.44-1.47 0-.99-.6-1.39-3.27-1.84-2.61-.43-4.32-1.3-4.32-3.81s1.97-3.99 5.01-3.99c2.84 0 4.51 1.2 4.99 3.64l-2.61.5c-.27-1.32-1.12-1.78-2.52-1.78-1.41 0-2.15.54-2.15 1.33 0 .91.52 1.24 3.19 1.7 3.06.56 4.37 1.68 4.37 4 0 2.57-1.88 4.06-5.26 4.06-3.2.01-4.75-1.13-5.21-3.7zM291.09 110.5v2.36h-9.02V99.98h8.82v2.34h-6.08v2.75h5.67v2.34h-5.67v3.1h6.28zM304.01 102.55h-3.87v10.31h-2.73v-10.31h-3.89v-2.57h10.49v2.57zM316.41 102.55h-3.87v10.31h-2.73v-10.31h-3.89v-2.57h10.49v2.57zM318.56 109.44l2.59-.5c.29 1.3.99 1.86 2.75 1.86 1.61 0 2.44-.46 2.44-1.47 0-.99-.6-1.39-3.27-1.84-2.61-.43-4.32-1.3-4.32-3.81s1.97-3.99 5.01-3.99c2.84 0 4.51 1.2 4.99 3.64l-2.61.5c-.27-1.32-1.12-1.78-2.52-1.78-1.41 0-2.15.54-2.15 1.33 0 .91.52 1.24 3.19 1.7 3.06.56 4.37 1.68 4.37 4 0 2.57-1.88 4.06-5.26 4.06-3.2.01-4.75-1.13-5.21-3.7zM170 31.68c0 4.49-3.25 7.07-8.38 7.07h-6.86v9.62h-2.26V24.82h9.3c5.3 0 8.2 2.41 8.2 6.86zm-2.3.11c0-3.32-2.26-4.88-6.23-4.88h-6.72v9.76h6.72c3.83 0 6.2-1.56 6.23-4.88zM186.14 48.34c-.57.21-1.1.32-1.63.32-1.63 0-2.58-.78-2.62-2.58-1.38 1.8-3.36 2.72-5.91 2.72-3.22 0-5.38-1.66-5.38-4.81 0-3.47 2.69-5.38 7.46-5.38 1.45 0 2.55.11 3.71.25v-1.91c0-3.08-1.41-4.46-4.31-4.46-2.23 0-3.86.88-4.32 3.18l-1.98-.35c.57-3.08 2.87-4.81 6.4-4.81 4.35 0 6.4 2.02 6.4 6.47v8.45c0 .85.25 1.34.99 1.34.46 0 .71-.07.95-.18l.24 1.75zm-4.36-4.56V40.6c-.92-.14-2.16-.21-3.68-.21-3.43 0-5.31 1.13-5.31 3.5 0 2.09 1.41 3.08 3.61 3.08 2.24-.01 4.11-.89 5.38-3.19zM188.93 25.1c0-1.03.78-1.77 1.73-1.77.96 0 1.7.74 1.7 1.77s-.74 1.73-1.7 1.73c-.95.01-1.73-.7-1.73-1.73zm.64 5.84h2.19v17.44h-2.19V30.94zM210.86 22.59v25.79h-1.91l-.18-3.25c-1.06 2.3-3.11 3.64-6.01 3.64-4.42 0-7.32-3.04-7.32-9.02 0-5.94 3.36-9.23 7.67-9.23 2.65 0 4.53 1.1 5.55 3.08v-11h2.2zm-2.19 19.81v-5.66c-.71-2.72-2.55-4.24-5.24-4.24-3.43 0-5.73 2.48-5.77 7.18 0 4.74 2.16 7.11 5.52 7.11 2.87 0 4.78-1.67 5.49-4.39zM225.26 26.87v9.06h11.14v2.05h-11.14v10.4H223V24.82h14.5v2.05h-12.24zM253.99 48.34c-.57.21-1.1.32-1.63.32-1.63 0-2.58-.78-2.62-2.58-1.38 1.8-3.36 2.72-5.91 2.72-3.22 0-5.38-1.66-5.38-4.81 0-3.47 2.69-5.38 7.46-5.38 1.45 0 2.55.11 3.71.25v-1.91c0-3.08-1.41-4.46-4.31-4.46-2.23 0-3.86.88-4.32 3.18l-1.98-.35c.57-3.08 2.87-4.81 6.4-4.81 4.35 0 6.4 2.02 6.4 6.47v8.45c0 .85.25 1.34.99 1.34.46 0 .71-.07.95-.18l.24 1.75zm-4.35-4.56V40.6c-.92-.14-2.16-.21-3.68-.21-3.43 0-5.31 1.13-5.31 3.5 0 2.09 1.41 3.08 3.61 3.08 2.23-.01 4.11-.89 5.38-3.19zM282.64 37.45v10.93h-2.19V37.84c0-3.36-1.52-5.31-4.46-5.31-3.04 0-4.92 2.41-5.31 4.74v11.11h-2.19V37.84c0-3.36-1.52-5.31-4.49-5.31s-4.78 2.26-5.23 4.56v11.28h-2.19V30.94h1.98l.18 2.97c.96-1.8 2.83-3.4 5.87-3.4 2.94 0 4.92 1.38 5.69 4 .92-2.02 2.86-4 6.26-4 3.89.01 6.08 2.45 6.08 6.94zM287.49 25.1c0-1.03.78-1.77 1.73-1.77.96 0 1.7.74 1.7 1.77s-.74 1.73-1.7 1.73c-.95.01-1.73-.7-1.73-1.73zm.64 5.84h2.19v17.44h-2.19V30.94zM296.16 22.59h2.19v25.79h-2.19V22.59zM316.68 30.94l-6.93 17.44-1.31 3.04c-1.24 2.94-2.51 4.32-4.88 4.32-1.63 0-2.69-.46-3.5-1.59l1.31-1.38c.5.71 1.1 1.03 2.19 1.03 1.56 0 2.23-1.1 3.15-3.08l1.1-2.41-6.97-17.37h2.44l4.03 10.54 1.56 4.17 1.56-4.17 4-10.54h2.25zM341.66 48.38l-3.18-3.36c-1.91 2.16-4.24 3.71-7.82 3.71-4 0-6.72-2.3-6.72-6.3 0-3.4 1.87-5.73 5.24-7.29-1.24-1.45-2.26-3.01-2.26-5.13 0-3.32 2.23-5.66 5.87-5.66 3.04 0 5.38 1.66 5.38 5.13 0 3.08-2.37 4.99-5.59 6.4l5.91 6.3.32-.42 3.61-4.67 1.38 1.27-4.03 5.09-.03.04 4.6 4.88h-2.68zm-4.46-4.71l-6.83-7.22c-3.08 1.34-4.21 3.4-4.21 5.62 0 3.04 1.84 4.7 4.85 4.7 2.47.02 4.35-1.08 6.19-3.1zm-8.21-13.86c0 1.45.35 2.58 2.3 4.74 3.33-1.34 4.85-2.83 4.85-4.85 0-2.05-1.2-3.4-3.4-3.4-2.33.01-3.75 1.42-3.75 3.51zM174.92 83.74h-2.16V65.1l.07-1.66-8.03 19.91h-2.23l-8.03-19.95.07 1.59v18.75h-2.12V60.18h3.01l7.85 19.63.42 1.13.42-1.1 7.82-19.67h2.9v23.57zM193.25 75.36H180.3c.14 4.53 2.48 6.83 5.66 6.83 2.62 0 4.39-1.17 5.06-3.43l1.98.39c-.88 3.4-3.64 4.99-7.07 4.99-4.67 0-7.89-3.22-7.85-9.09 0-5.62 3.25-9.16 7.96-9.16 4.1 0 7.25 2.58 7.25 8.35-.01.41-.01.76-.04 1.12zm-12.88-1.84h10.82c-.21-4.1-2.37-5.69-5.24-5.69-3-.01-5.15 1.94-5.58 5.69zM210.9 57.95v25.79h-1.91l-.18-3.25c-1.06 2.3-3.11 3.64-6.01 3.64-4.42 0-7.32-3.04-7.32-9.02 0-5.94 3.36-9.23 7.67-9.23 2.65 0 4.53 1.1 5.55 3.08v-11h2.2zm-2.19 19.81V72.1c-.71-2.72-2.55-4.24-5.24-4.24-3.43 0-5.73 2.48-5.77 7.18 0 4.74 2.16 7.11 5.52 7.11 2.87 0 4.78-1.67 5.49-4.39zM215.29 60.46c0-1.03.78-1.77 1.73-1.77.96 0 1.7.74 1.7 1.77s-.74 1.73-1.7 1.73c-.95.01-1.73-.7-1.73-1.73zm.63 5.84h2.19v17.44h-2.19V66.3zM221.8 75c0-5.62 3.11-9.13 7.75-9.13 3.71 0 6.01 1.56 6.79 5.13l-2.05.39c-.57-2.55-2.23-3.54-4.67-3.54-3.57 0-5.59 2.72-5.59 7.11 0 4.67 2.09 7.18 5.55 7.18 2.69 0 4.35-1.2 4.81-3.54l2.02.35c-.71 3.43-3.22 5.16-6.9 5.16-4.71.02-7.71-3.2-7.71-9.11zM254.31 83.7c-.57.21-1.1.32-1.63.32-1.63 0-2.58-.78-2.62-2.58-1.38 1.8-3.36 2.72-5.91 2.72-3.22 0-5.38-1.66-5.38-4.81 0-3.47 2.69-5.38 7.46-5.38 1.45 0 2.55.11 3.71.25v-1.91c0-3.08-1.41-4.46-4.31-4.46-2.23 0-3.86.88-4.32 3.18l-1.98-.35c.57-3.08 2.87-4.81 6.4-4.81 4.35 0 6.4 2.02 6.4 6.47v8.45c0 .85.25 1.34.99 1.34.46 0 .71-.07.95-.18l.24 1.75zm-4.35-4.56v-3.18c-.92-.14-2.16-.21-3.68-.21-3.43 0-5.31 1.13-5.31 3.5 0 2.09 1.41 3.08 3.61 3.08 2.23-.01 4.1-.89 5.38-3.19zM257.03 57.95h2.19v25.79h-2.19V57.95zM285.26 81.62v2.12h-14.5V60.18h2.26v21.43h12.24zM300.4 75.36h-12.95c.14 4.53 2.48 6.83 5.66 6.83 2.62 0 4.39-1.17 5.06-3.43l1.98.39c-.88 3.4-3.64 4.99-7.07 4.99-4.67 0-7.89-3.22-7.85-9.09 0-5.62 3.25-9.16 7.96-9.16 4.1 0 7.25 2.58 7.25 8.35 0 .41 0 .76-.04 1.12zm-12.87-1.84h10.82c-.21-4.1-2.37-5.69-5.24-5.69-3-.01-5.16 1.94-5.58 5.69zM318.02 83.7c-.57.21-1.1.32-1.63.32-1.63 0-2.58-.78-2.62-2.58-1.38 1.8-3.36 2.72-5.91 2.72-3.22 0-5.38-1.66-5.38-4.81 0-3.47 2.69-5.38 7.46-5.38 1.45 0 2.55.11 3.71.25v-1.91c0-3.08-1.41-4.46-4.31-4.46-2.23 0-3.86.88-4.32 3.18l-1.98-.35c.57-3.08 2.87-4.81 6.4-4.81 4.35 0 6.4 2.02 6.4 6.47v8.45c0 .85.25 1.34.99 1.34.46 0 .71-.07.95-.18l.24 1.75zm-4.35-4.56v-3.18c-.92-.14-2.16-.21-3.68-.21-3.43 0-5.31 1.13-5.31 3.5 0 2.09 1.41 3.08 3.61 3.08 2.23-.01 4.11-.89 5.38-3.19zM334.05 66.3l-7.25 17.44h-1.91l-7.11-17.44h2.41l4.28 10.86 1.45 4.14 1.52-4.14 4.35-10.86h2.26zM349.97 75.36h-12.95c.14 4.53 2.48 6.83 5.66 6.83 2.62 0 4.39-1.17 5.06-3.43l1.98.39c-.88 3.4-3.64 4.99-7.07 4.99-4.67 0-7.89-3.22-7.85-9.09 0-5.62 3.25-9.16 7.96-9.16 4.1 0 7.25 2.58 7.25 8.35-.01.41-.01.76-.04 1.12zm-12.88-1.84h10.82c-.21-4.1-2.37-5.69-5.24-5.69-3-.01-5.15 1.94-5.58 5.69zM65.29 38.22c-.06 3.85-2.72 5.92-7.1 5.92l-11.83.03V32.39l11.83-.03c4.32 0 7.16 1.95 7.1 5.86zM132.64 0v132.64H0V24.8L24.8 0h107.84zM24.8 2.97L2.97 24.8H24.8V2.97zm62.26 61.48h8.42V50.22h13.71v-7.71H95.48v-9.79H112v-7.77H87.06v39.5zm-49.05-.05h8.34V51.62l12.54-.03c8.93 0 14.91-4.97 14.91-13.55 0-8.46-5.15-13.07-14.44-13.07L38 25v39.4zm36.29 48.4l-2.61-39.5h-8.78l-8.17 26.28L46.9 73.3h-8.95l-2.49 39.5h7.59l1.13-20.7.06-5.63 6.48 23.43h7.91l6.72-23.43.06 5.28 1.13 21.05h7.76zm37.84-7.95H95.39V73.3h-8.42v39.5h25.18v-7.95z"/></g></g></switch></svg>