<svg width="32" height="30" viewBox="0 0 32 30" fill="none" xmlns="http://www.w3.org/2000/svg">
<path d="M29.4387 10.82C29.2307 11.0333 29.2307 11.3667 29.4387 11.5801C30.4027 12.5401 30.9333 13.8267 30.9333 15.1934C30.9333 16.56 30.4027 17.84 29.4387 18.8066C29.2307 19.0133 29.2307 19.3534 29.4387 19.5601C29.5433 19.6667 29.6793 19.7134 29.816 19.7134C29.9527 19.7134 30.0893 19.6667 30.1933 19.5601C31.3587 18.3934 32 16.84 32 15.1934C32 13.54 31.3587 11.9867 30.1933 10.82C29.9853 10.6133 29.6473 10.6133 29.4387 10.82ZM1.80667 10.82C0.641338 11.9867 0 13.54 0 15.1934C0 16.84 0.641338 18.3934 1.80667 19.5601C1.91067 19.6667 2.04733 19.7134 2.184 19.7134C2.32067 19.7134 2.45666 19.6667 2.56133 19.5601C2.76933 19.3534 2.76933 19.0133 2.56133 18.8066C1.59733 17.84 1.06667 16.56 1.06667 15.1934C1.06667 13.8267 1.59733 12.5401 2.56133 11.5801C2.76933 11.3667 2.76933 11.0333 2.56133 10.82C2.35266 10.6133 2.01467 10.6133 1.80667 10.82ZM27.1933 11.8867C26.9853 12.1001 26.9853 12.4333 27.1933 12.6466C28.5573 14.0066 28.5573 16.2266 27.1933 17.5933C26.9853 17.7999 26.9853 18.14 27.1933 18.3467C27.2973 18.4467 27.434 18.5 27.5707 18.5C27.7073 18.5 27.844 18.4467 27.948 18.3467C29.7273 16.5667 29.7273 13.6667 27.948 11.8867C27.7393 11.6801 27.4013 11.6801 27.1933 11.8867C26.9853 12.1001 27.1933 11.8867 27.1933 11.8867ZM4.42933 18.5C4.566 18.5 4.70267 18.4467 4.80667 18.3467C5.01467 18.14 5.01467 17.7999 4.80667 17.5933C3.44267 16.2266 3.44267 14.0066 4.80667 12.6466C5.01467 12.4333 5.01467 12.1001 4.80667 11.8867C4.59867 11.6801 4.26067 11.6801 4.052 11.8867C2.27267 13.6667 2.27267 16.5667 4.052 18.3467C4.156 18.4467 4.29267 18.5 4.42933 18.5C4.566 18.5 4.42933 18.5 4.42933 18.5ZM30.1933 10.82C30.1933 10.82 29.028 9.65999 30.1933 10.82V10.82ZM25.08 10.6667C25.1027 7.01333 22.6433 4.58662 20.53 3.61995C19.9347 3.34662 19.3067 3.14666 18.6667 2.99333V2.66667C18.6667 1.19333 17.4707 0 16 0C14.5293 0 13.3333 1.19333 13.3333 2.66667V3.04004C12.758 3.19337 12.1927 3.37996 11.6553 3.62663C9.32067 4.69996 6.95466 7.3 6.93333 10.6667V15.4666C6.93333 18.8733 5.73 21.8 3.35733 24.1533C3.216 24.2933 3.16466 24.5067 3.22533 24.6934C3.28467 24.8867 3.44667 25.0267 3.64267 25.0601L8.70467 25.9333C9.66 26.0999 10.526 26.2267 11.3413 26.34C12.272 28.16 14.1 29.3333 16.0973 29.3333C18.0953 29.3333 19.924 28.16 20.8547 26.3333C21.666 26.2267 22.528 26.0999 23.478 25.9333L28.5393 25.0601C28.736 25.0267 28.8973 24.8867 28.9573 24.6934C29.0173 24.5067 28.9667 24.2933 28.8253 24.1533C26.34 21.6867 25.08 18.76 25.08 15.4666V10.6667ZM10.13 11.2C9.83534 11.2 9.59866 10.96 9.6 10.6667C9.616 8.16667 11.6013 6.58671 12.772 6.04671C14.8253 5.10005 17.356 5.10005 19.4227 6.04671C19.69 6.16671 19.808 6.48659 19.6853 6.75326C19.5627 7.01992 19.2467 7.14001 18.9787 7.01335C17.1907 6.20001 14.9953 6.20001 13.2187 7.01335C12.2767 7.45335 10.6793 8.70667 10.6667 10.6667C10.6653 10.9667 10.426 11.2 10.1333 11.2H10.13ZM16.0973 28.2666C14.746 28.2666 13.4833 27.5933 12.6727 26.4933H12.6733C12.8827 26.52 13.0853 26.5334 13.288 26.5534C13.388 26.5601 13.49 26.5734 13.5887 26.5801C13.662 26.5867 13.732 26.5866 13.804 26.5933C15.354 26.7066 16.782 26.7066 18.33 26.5999C18.4207 26.5933 18.51 26.5867 18.6013 26.5801C18.716 26.5667 18.834 26.56 18.95 26.5467C19.1327 26.5334 19.3147 26.5133 19.5027 26.4933H19.5227C18.7133 27.5933 17.4493 28.2666 16.0973 28.2666ZM16 1.06673C16.882 1.06673 17.6 1.78667 17.6 2.66667V2.7666C16.5373 2.61994 15.454 2.62663 14.4 2.79329V2.66667C14.4 1.78667 15.118 1.06673 16 1.06673Z" fill="none"/>
</svg>
