<svg viewBox="0 0 24 24" width="24" height="24" xmlns="http://www.w3.org/2000/svg"><path d="M20.66 6.98a9.957 9.957 0 00-3.64-3.639C15.488 2.447 13.815 2 12 2c-1.814 0-3.487.447-5.02 1.341a9.954 9.954 0 00-3.639 3.64C2.447 8.512 2 10.185 2 12s.447 3.487 1.341 5.02a9.958 9.958 0 003.64 3.639C8.513 21.553 10.186 22 12 22c1.813 0 3.487-.447 5.019-1.341a9.956 9.956 0 003.639-3.64C21.553 15.488 22 13.815 22 12s-.447-3.488-1.34-5.02zM10.333 4.5c0-.122.039-.221.117-.3a.406.406 0 01.3-.117h2.5c.12 0 .22.04.299.117a.406.406 0 01.117.3v2.083c0 .122-.04.222-.117.3a.404.404 0 01-.3.117h-2.5a.406.406 0 01-.3-.117.405.405 0 01-.116-.3V4.5zm5 13.75c0 .121-.04.221-.118.3a.405.405 0 01-.3.116H9.084a.405.405 0 01-.299-.117.405.405 0 01-.117-.3v-2.083c0-.121.039-.22.117-.299a.406.406 0 01.3-.117h1.25v-4.167h-1.25a.405.405 0 01-.3-.117.405.405 0 01-.117-.3V9.084c0-.121.039-.221.117-.3a.406.406 0 01.3-.116h4.166c.122 0 .222.039.3.117a.406.406 0 01.117.3v6.666h1.25c.121 0 .221.04.3.117a.406.406 0 01.116.3v2.083z" fill="#14558F" fill-rule="nonzero"/></svg>