<svg xmlns="http://www.w3.org/2000/svg" viewBox="0 0 48 44">
  <path fill="#f6c51b" d="M44.158 16.23c-.312.32-.312.82 0 1.14 1.446 1.44 2.242 3.37 2.242 5.42s-.796 3.97-2.242 5.42c-.312.31-.312.82 0 1.13.157.16.361.23.566.23.205 0 .41-.07.566-.23 1.748-1.75 2.71-4.08 2.71-6.55 0-2.48-.962-4.81-2.71-6.56-.312-.31-.819-.31-1.132 0zm-41.448 0C.962 17.98 0 20.31 0 22.79c0 2.47.962 4.8 2.71 6.55.156.16.361.23.566.23.205 0 .409-.07.566-.23.312-.31.312-.82 0-1.13C2.396 26.76 1.6 24.84 1.6 22.79s.796-3.98 2.242-5.42c.312-.32.312-.82 0-1.14-.313-.31-.82-.31-1.132 0zm38.08 1.6c-.312.32-.312.82 0 1.14 2.046 2.04 2.046 5.37 0 7.42-.312.31-.312.82 0 1.13.156.15.361.23.566.23.205 0 .41-.08.566-.23 2.669-2.67 2.669-7.02 0-9.69-.313-.31-.82-.31-1.132 0-.312.32 0 0 0 0zM6.644 27.75c.205 0 .41-.08.566-.23.312-.31.312-.82 0-1.13-2.046-2.05-2.046-5.38 0-7.42.312-.32.312-.82 0-1.14-.312-.31-.819-.31-1.132 0-2.669 2.67-2.669 7.02 0 9.69.156.15.361.23.566.23.205 0 0 0 0 0zM45.29 16.23s-1.748-1.74 0 0zM37.62 16c.034-5.48-3.655-9.12-6.825-10.57-.893-.41-1.835-.71-2.795-.94V4c0-2.21-1.794-4-4-4s-4 1.79-4 4v.56c-.863.23-1.711.51-2.517.88C13.981 7.05 10.432 10.95 10.4 16v7.2c0 5.11-1.805 9.5-5.364 13.03-.212.21-.289.53-.198.81.089.29.332.5.626.55l7.593 1.31c1.433.25 2.732.44 3.955.61C18.408 42.24 21.15 44 24.146 44c2.997 0 5.74-1.76 7.136-4.5 1.217-.16 2.51-.35 3.935-.6l7.592-1.31c.295-.05.537-.26.627-.55.09-.28.014-.6-.198-.81-3.728-3.7-5.618-8.09-5.618-13.03zm-22.425.8c-.442 0-.797-.36-.795-.8.024-3.75 3.002-6.12 4.758-6.93 3.08-1.42 6.876-1.42 9.976 0 .401.18.578.66.394 1.06-.184.4-.658.58-1.06.39-2.682-1.22-5.975-1.22-8.64 0-1.413.66-3.809 2.54-3.828 5.48-.002.45-.361.8-.8.8zm8.951 25.6c-2.027 0-3.921-1.01-5.137-2.66h.001c.314.04.618.06.922.09.15.01.303.03.451.04.11.01.215.01.323.02 2.325.17 4.467.17 6.789.01.136-.01.27-.02.407-.03.172-.02.349-.03.523-.05.274-.02.547-.05.829-.08h.03c-1.214 1.65-3.11 2.66-5.138 2.66zM24 1.6c1.323 0 2.4 1.08 2.4 2.4v.15c-1.594-.22-3.219-.21-4.8.04V4c0-1.32 1.077-2.4 2.4-2.4z"/>
</svg>