<svg width="38" height="35" viewBox="0 0 38 35" fill="none" xmlns="http://www.w3.org/2000/svg">
<path fill-rule="evenodd" clip-rule="evenodd" d="M14.8166 3.43722C16.6517 0.174897 21.3487 0.174896 23.1838 3.43722L36.5765 27.2465C38.3763 30.4462 36.0641 34.3998 32.3929 34.3998H5.60748C1.93631 34.3998 -0.375915 30.4462 1.42392 27.2465L14.8166 3.43722ZM21.4 27.2C21.4 28.5255 20.3255 29.6 19 29.6C17.6745 29.6 16.6 28.5255 16.6 27.2C16.6 25.8746 17.6745 24.8 19 24.8C20.3255 24.8 21.4 25.8746 21.4 27.2ZM19 8.00005C17.6745 8.00005 16.6 9.07456 16.6 10.4V17.6C16.6 18.9255 17.6745 20 19 20C20.3255 20 21.4 18.9255 21.4 17.6V10.4C21.4 9.07456 20.3255 8.00005 19 8.00005Z" fill="#989898"/>
</svg>
