<svg width="40" height="40" viewBox="0 0 40 40" fill="none" xmlns="http://www.w3.org/2000/svg">
<path fill-rule="evenodd" clip-rule="evenodd" d="M39.2 20C39.2 30.6039 30.6039 39.2 20 39.2C9.39612 39.2 0.799988 30.6039 0.799988 20C0.799988 9.39618 9.39612 0.800049 20 0.800049C30.6039 0.800049 39.2 9.39618 39.2 20ZM22.4 29.6C22.4 30.9255 21.3255 32 20 32C18.6745 32 17.6 30.9255 17.6 29.6C17.6 28.2746 18.6745 27.2 20 27.2C21.3255 27.2 22.4 28.2746 22.4 29.6ZM20 8.00005C18.6745 8.00005 17.6 9.07456 17.6 10.4V20C17.6 21.3255 18.6745 22.4 20 22.4C21.3255 22.4 22.4 21.3255 22.4 20V10.4C22.4 9.07456 21.3255 8.00005 20 8.00005Z" fill="#989898"/>
</svg>
