<svg width="40" height="40" viewBox="0 0 40 40" fill="none" xmlns="http://www.w3.org/2000/svg">
<path fill-rule="evenodd" clip-rule="evenodd" d="M20 39.1998C30.6038 39.1998 39.2 30.6037 39.2 19.9998C39.2 9.39594 30.6038 0.799805 20 0.799805C9.39612 0.799805 0.799988 9.39594 0.799988 19.9998C0.799988 30.6037 9.39612 39.1998 20 39.1998ZM28.897 16.8969C29.8343 15.9596 29.8343 14.44 28.897 13.5027C27.9598 12.5655 26.4402 12.5655 25.5029 13.5027L17.6 21.4057L14.497 18.3027C13.5598 17.3655 12.0402 17.3655 11.1029 18.3027C10.1657 19.24 10.1657 20.7596 11.1029 21.6969L15.9029 26.4969C16.8402 27.4341 18.3598 27.4341 19.297 26.4969L28.897 16.8969Z" fill="#989898"/>
</svg>
