<svg width="40" height="40" viewBox="0 0 40 40" fill="none" xmlns="http://www.w3.org/2000/svg">
<path fill-rule="evenodd" clip-rule="evenodd" d="M20 39.2C30.6039 39.2 39.2 30.6039 39.2 20C39.2 9.39618 30.6039 0.800049 20 0.800049C9.39612 0.800049 0.799988 9.39618 0.799988 20C0.799988 30.6039 9.39612 39.2 20 39.2ZM16.897 13.503C15.9598 12.5657 14.4402 12.5657 13.5029 13.503C12.5657 14.4402 12.5657 15.9598 13.5029 16.8971L16.6059 20L13.5029 23.103C12.5657 24.0402 12.5657 25.5598 13.5029 26.4971C14.4402 27.4344 15.9598 27.4344 16.897 26.4971L20 23.3942L23.1029 26.4971C24.0402 27.4344 25.5598 27.4344 26.497 26.4971C27.4343 25.5598 27.4343 24.0402 26.497 23.103L23.3941 20L26.497 16.8971C27.4343 15.9598 27.4343 14.4402 26.497 13.503C25.5598 12.5657 24.0402 12.5657 23.1029 13.503L20 16.6059L16.897 13.503Z" fill="#989898"/>
</svg>
