<svg width="34" height="37" viewBox="0 0 34 37" fill="none" xmlns="http://www.w3.org/2000/svg">
<path fill-rule="evenodd" clip-rule="evenodd" d="M0.199997 7.39995C0.199997 3.4235 3.42354 0.199951 7.39998 0.199951H31.3999C32.309 0.199951 33.14 0.713557 33.5465 1.52664C33.9531 2.33972 33.8654 3.31271 33.3199 4.03995L27.1999 12.2L33.3199 20.3599C33.8654 21.0872 33.9531 22.0602 33.5465 22.8733C33.14 23.6863 32.309 24.1999 31.3999 24.1999H7.39998C6.0745 24.1999 4.99999 25.2745 4.99999 26.5999V33.7999C4.99999 35.1254 3.92547 36.1999 2.59999 36.1999C1.27451 36.1999 0.199997 35.1254 0.199997 33.7999V7.39995Z" fill="#989898"/>
</svg>
