<svg width="14" height="10" viewBox="0 0 14 10" fill="none" xmlns="http://www.w3.org/2000/svg">
<path fill-rule="evenodd" clip-rule="evenodd" d="M0.666687 1C0.666687 0.447715 1.1144 0 1.66669 0H12.3334C12.8856 0 13.3334 0.447715 13.3334 1C13.3334 1.55228 12.8856 2 12.3334 2H1.66669C1.1144 2 0.666687 1.55228 0.666687 1ZM0.666687 5C0.666687 4.44772 1.1144 4 1.66669 4H12.3334C12.8856 4 13.3334 4.44772 13.3334 5C13.3334 5.55228 12.8856 6 12.3334 6H1.66669C1.1144 6 0.666687 5.55228 0.666687 5ZM0.666687 9C0.666687 8.44772 1.1144 8 1.66669 8H12.3334C12.8856 8 13.3334 8.44772 13.3334 9C13.3334 9.55229 12.8856 10 12.3334 10H1.66669C1.1144 10 0.666687 9.55229 0.666687 9Z" fill="#989898"/>
</svg>
