<svg width="34" height="26" viewBox="0 0 34 26" fill="none" xmlns="http://www.w3.org/2000/svg">
<path fill-rule="evenodd" clip-rule="evenodd" d="M0 1C0 0.447715 0.447715 0 1 0H33C33.5523 0 34 0.447715 34 1C34 1.55228 33.5523 2 33 2H1C0.447715 2 0 1.55228 0 1ZM0 13C0 12.4477 0.447715 12 1 12H33C33.5523 12 34 12.4477 34 13C34 13.5523 33.5523 14 33 14H1C0.447715 14 0 13.5523 0 13ZM0 25C0 24.4477 0.447715 24 1 24H33C33.5523 24 34 24.4477 34 25C34 25.5523 33.5523 26 33 26H1C0.447715 26 0 25.5523 0 25Z" fill="#989898"/>
</svg>
