<svg width="16" height="12" viewBox="0 0 16 12" fill="none" xmlns="http://www.w3.org/2000/svg">
<path fill-rule="evenodd" clip-rule="evenodd" d="M0.333313 1C0.333313 0.447715 0.781028 0 1.33331 0H14.6666C15.2189 0 15.6666 0.447715 15.6666 1C15.6666 1.55228 15.2189 2 14.6666 2H1.33331C0.781028 2 0.333313 1.55228 0.333313 1ZM0.333313 6C0.333313 5.44772 0.781028 5 1.33331 5H14.6666C15.2189 5 15.6666 5.44772 15.6666 6C15.6666 6.55228 15.2189 7 14.6666 7H1.33331C0.781028 7 0.333313 6.55228 0.333313 6ZM0.333313 11C0.333313 10.4477 0.781028 10 1.33331 10H14.6666C15.2189 10 15.6666 10.4477 15.6666 11C15.6666 11.5523 15.2189 12 14.6666 12H1.33331C0.781028 12 0.333313 11.5523 0.333313 11Z" fill="#989898"/>
</svg>
