<svg width="40" height="40" viewBox="0 0 40 40" fill="none" xmlns="http://www.w3.org/2000/svg">
<path fill-rule="evenodd" clip-rule="evenodd" d="M39.2 20C39.2 30.6039 30.6039 39.2 20 39.2C9.39614 39.2 0.800003 30.6039 0.800003 20C0.800003 9.39618 9.39614 0.800049 20 0.800049C30.6039 0.800049 39.2 9.39618 39.2 20ZM20 12.8C19.1147 12.8 18.3382 13.2782 17.9196 14.0018C17.2559 15.1491 15.7878 15.5412 14.6404 14.8775C13.4931 14.2138 13.101 12.7457 13.7647 11.5983C15.006 9.45248 17.332 8.00005 20 8.00005C23.9765 8.00005 27.2 11.2236 27.2 15.2C27.2 18.335 25.1965 21.0019 22.4 21.9904V22.4C22.4 23.7255 21.3255 24.8 20 24.8C18.6746 24.8 17.6 23.7255 17.6 22.4V20C17.6 18.6746 18.6746 17.6 20 17.6C21.3255 17.6 22.4 16.5255 22.4 15.2C22.4 13.8746 21.3255 12.8 20 12.8ZM20 32C21.3255 32 22.4 30.9255 22.4 29.6C22.4 28.2746 21.3255 27.2 20 27.2C18.6745 27.2 17.6 28.2746 17.6 29.6C17.6 30.9255 18.6745 32 20 32Z" fill="#989898"/>
</svg>
