<svg width="40" height="40" viewBox="0 0 40 40" fill="none" xmlns="http://www.w3.org/2000/svg">
<path d="M21.697 1.50299C20.7598 0.565734 19.2402 0.565734 18.3029 1.50299L1.50293 18.303C0.565673 19.2402 0.565673 20.7598 1.50293 21.6971C2.44019 22.6344 3.95979 22.6344 4.89704 21.6971L5.59999 20.9942V36.8C5.59999 38.1255 6.6745 39.2 7.99999 39.2H12.8C14.1255 39.2 15.2 38.1255 15.2 36.8V32C15.2 30.6746 16.2745 29.6 17.6 29.6H22.4C23.7255 29.6 24.8 30.6746 24.8 32V36.8C24.8 38.1255 25.8745 39.2 27.2 39.2H32C33.3255 39.2 34.4 38.1255 34.4 36.8V20.9942L35.1029 21.6971C36.0402 22.6344 37.5598 22.6344 38.497 21.6971C39.4343 20.7598 39.4343 19.2402 38.497 18.303L21.697 1.50299Z" fill="#989898"/>
</svg>
