<svg width="40" height="40" viewBox="0 0 40 40" fill="none" xmlns="http://www.w3.org/2000/svg">
<path fill-rule="evenodd" clip-rule="evenodd" d="M39.2001 20.0001C39.2001 30.604 30.6039 39.2001 20 39.2001C9.39616 39.2001 0.800011 30.604 0.800011 20.0001C0.800011 9.3962 9.39616 0.800049 20 0.800049C30.6039 0.800049 39.2001 9.3962 39.2001 20.0001ZM22.4 10.4001C22.4 11.7255 21.3255 12.8001 20 12.8001C18.6746 12.8001 17.6 11.7255 17.6 10.4001C17.6 9.07458 18.6746 8.00006 20 8.00006C21.3255 8.00006 22.4 9.07458 22.4 10.4001ZM17.6 17.6001C16.2746 17.6001 15.2 18.6746 15.2 20.0001C15.2 21.3256 16.2746 22.4001 17.6 22.4001V29.6001C17.6 30.9256 18.6746 32.0001 20 32.0001H22.4C23.7255 32.0001 24.8 30.9256 24.8 29.6001C24.8 28.2746 23.7255 27.2001 22.4 27.2001V20.0001C22.4 18.6746 21.3255 17.6001 20 17.6001H17.6Z" fill="#989898"/>
</svg>
