<svg width="40" height="40" viewBox="0 0 40 40" fill="none" xmlns="http://www.w3.org/2000/svg">
<path fill-rule="evenodd" clip-rule="evenodd" d="M15.2 5.60005C9.89805 5.60005 5.59999 9.89811 5.59999 15.2C5.59999 20.502 9.89805 24.8 15.2 24.8C20.5019 24.8 24.8 20.502 24.8 15.2C24.8 9.89811 20.5019 5.60005 15.2 5.60005ZM0.799988 15.2C0.799988 7.24715 7.24709 0.800049 15.2 0.800049C23.1529 0.800049 29.6 7.24715 29.6 15.2C29.6 18.31 28.6141 21.1898 26.9378 23.5437L38.497 35.103C39.4343 36.0402 39.4343 37.5598 38.497 38.4971C37.5598 39.4344 36.0402 39.4344 35.1029 38.4971L23.5437 26.9378C21.1897 28.6142 18.31 29.6 15.2 29.6C7.24709 29.6 0.799988 23.1529 0.799988 15.2Z" fill="#989898"/>
</svg>
