<svg width="40" height="40" viewBox="0 0 40 40" fill="none" xmlns="http://www.w3.org/2000/svg">
<path fill-rule="evenodd" clip-rule="evenodd" d="M23.5741 3.61031C22.6645 -0.136703 17.3355 -0.136705 16.4259 3.61031C15.8382 6.03083 13.0651 7.17951 10.938 5.88346C7.64523 3.87714 3.8771 7.64528 5.88341 10.938C7.17947 13.0651 6.03078 15.8383 3.61026 16.4259C-0.136753 17.3356 -0.136751 22.6645 3.61026 23.5742C6.03078 24.1618 7.17947 26.935 5.88341 29.0621C3.8771 32.3548 7.64524 36.1229 10.938 34.1166C13.0651 32.8206 15.8382 33.9693 16.4259 36.3898C17.3355 40.1368 22.6645 40.1368 23.5741 36.3898C24.1618 33.9693 26.9349 32.8206 29.062 34.1166C32.3548 36.1229 36.1229 32.3548 34.1166 29.0621C32.8205 26.935 33.9692 24.1618 36.3897 23.5742C40.1367 22.6645 40.1367 17.3356 36.3897 16.4259C33.9692 15.8383 32.8205 13.0651 34.1166 10.938C36.1229 7.64528 32.3548 3.87715 29.062 5.88346C26.9349 7.17952 24.1618 6.03083 23.5741 3.61031ZM20 27.2C23.9764 27.2 27.2 23.9765 27.2 20C27.2 16.0236 23.9764 12.8 20 12.8C16.0235 12.8 12.8 16.0236 12.8 20C12.8 23.9765 16.0235 27.2 20 27.2Z" fill="#989898"/>
</svg>
