<svg width="45" height="44" viewBox="0 0 45 44" fill="none" xmlns="http://www.w3.org/2000/svg">
<path fill-rule="evenodd" clip-rule="evenodd" d="M22.5 40C32.4411 40 40.5 31.9411 40.5 22C40.5 12.0589 32.4411 4 22.5 4C12.5589 4 4.5 12.0589 4.5 22C4.5 31.9411 12.5589 40 22.5 40ZM22.5 44C34.6503 44 44.5 34.1503 44.5 22C44.5 9.84974 34.6503 0 22.5 0C10.3497 0 0.5 9.84974 0.5 22C0.5 34.1503 10.3497 44 22.5 44Z" fill="#32784E"/>
<path fill-rule="evenodd" clip-rule="evenodd" d="M40.7928 34.2229C43.2102 30.605 44.5005 26.3514 44.5005 22.0002C44.5005 34.1055 34.7236 43.9273 22.6355 44C25.4652 43.9826 28.2793 43.4193 30.9194 42.3257C34.9394 40.6606 38.3754 37.8408 40.7928 34.2229ZM22.3458 43.9999C20.9629 43.9902 19.5775 43.8501 18.2082 43.5777C13.9594 42.7325 10.055 40.6519 6.98439 37.5972C10.9285 41.521 16.3525 43.9587 22.3458 43.9999ZM6.74683 37.3572C2.91481 33.4269 0.541254 28.0679 0.500594 22.1547C0.510294 23.5376 0.65042 24.9229 0.92279 26.2922C1.75344 30.4682 3.77753 34.3113 6.74683 37.3572ZM0.500488 21.8619C0.518295 19.0332 1.08157 16.2202 2.17473 13.5811C3.83987 9.56108 6.65969 6.12512 10.2776 3.7077C13.8955 1.29029 18.149 0 22.5003 0V4C32.4415 4 40.5005 12.059 40.5005 22.0002H44.5005C44.5005 9.84983 34.6507 0 22.5003 0C10.396 0 0.574915 9.77515 0.500488 21.8619Z" fill="#EEEEEE"/>
</svg>
