<svg width="30" height="40" viewBox="0 0 30 40" fill="none" xmlns="http://www.w3.org/2000/svg">
<path d="M12.6 0.800049C11.2745 0.800049 10.2 1.87457 10.2 3.20005C10.2 4.52553 11.2745 5.60005 12.6 5.60005H17.4C18.7255 5.60005 19.8 4.52553 19.8 3.20005C19.8 1.87457 18.7255 0.800049 17.4 0.800049H12.6Z" fill="#989898"/>
<path fill-rule="evenodd" clip-rule="evenodd" d="M0.600006 8.00005C0.600006 5.34908 2.74904 3.20005 5.40001 3.20005C5.40001 7.1765 8.62356 10.4 12.6 10.4H17.4C21.3765 10.4 24.6 7.1765 24.6 3.20005C27.251 3.20005 29.4 5.34908 29.4 8.00005V34.4C29.4 37.051 27.251 39.2 24.6 39.2H5.40001C2.74904 39.2 0.600006 37.051 0.600006 34.4V8.00005ZM23.8971 21.6971C24.8343 20.7598 24.8343 19.2402 23.8971 18.303C22.9598 17.3657 21.4402 17.3657 20.503 18.303L12.6 26.2059L9.49706 23.103C8.5598 22.1657 7.04021 22.1657 6.10295 23.103C5.16569 24.0402 5.16569 25.5598 6.10295 26.4971L10.903 31.2971C11.8402 32.2344 13.3598 32.2344 14.2971 31.2971L23.8971 21.6971Z" fill="#989898"/>
</svg>
