<svg width="44" height="34" viewBox="0 0 44 34" fill="none" xmlns="http://www.w3.org/2000/svg">
<path d="M19.6 7.39995C19.6 11.3764 16.3764 14.6 12.4 14.6C8.42354 14.6 5.19999 11.3764 5.19999 7.39995C5.19999 3.4235 8.42354 0.199951 12.4 0.199951C16.3764 0.199951 19.6 3.4235 19.6 7.39995Z" fill="#989898"/>
<path d="M38.8 7.39995C38.8 11.3764 35.5764 14.6 31.6 14.6C27.6235 14.6 24.4 11.3764 24.4 7.39995C24.4 3.4235 27.6235 0.199951 31.6 0.199951C35.5764 0.199951 38.8 3.4235 38.8 7.39995Z" fill="#989898"/>
<path d="M29.0299 33.8C29.142 33.0161 29.2 32.2148 29.2 31.4C29.2 27.4755 27.8544 23.8654 25.5994 21.0057C27.3646 19.9845 29.4141 19.4 31.6 19.4C38.2275 19.4 43.6 24.7725 43.6 31.4V33.8H29.0299Z" fill="#989898"/>
<path d="M12.4 19.4C19.0274 19.4 24.4 24.7725 24.4 31.4V33.8H0.399994V31.4C0.399994 24.7725 5.77258 19.4 12.4 19.4Z" fill="#989898"/>
</svg>
