<svg width="10" height="40" viewBox="0 0 10 40" fill="none" xmlns="http://www.w3.org/2000/svg">
<path d="M5.00001 10.4C2.34905 10.4 0.200012 8.25102 0.200012 5.60005C0.200012 2.94908 2.34905 0.800049 5.00001 0.800049C7.65098 0.800049 9.80001 2.94908 9.80001 5.60005C9.80001 8.25102 7.65098 10.4 5.00001 10.4Z" fill="#989898"/>
<path d="M5.00001 24.8C2.34905 24.8 0.200012 22.651 0.200012 20C0.200012 17.3491 2.34905 15.2 5.00001 15.2C7.65098 15.2 9.80001 17.3491 9.80001 20C9.80001 22.651 7.65098 24.8 5.00001 24.8Z" fill="#989898"/>
<path d="M5.00001 39.2C2.34905 39.2 0.200012 37.051 0.200012 34.4C0.200012 31.7491 2.34905 29.6 5.00001 29.6C7.65098 29.6 9.80001 31.7491 9.80001 34.4C9.80001 37.051 7.65098 39.2 5.00001 39.2Z" fill="#989898"/>
</svg>
