<svg width="48" height="48" viewBox="0 0 48 48" fill="none" xmlns="http://www.w3.org/2000/svg">
<path fill-rule="evenodd" clip-rule="evenodd" d="M11.2929 11.2929C11.6834 10.9024 12.3166 10.9024 12.7071 11.2929L24 22.5858L35.2929 11.2929C35.6834 10.9024 36.3166 10.9024 36.7071 11.2929C37.0976 11.6834 37.0976 12.3166 36.7071 12.7071L25.4142 24L36.7071 35.2929C37.0976 35.6834 37.0976 36.3166 36.7071 36.7071C36.3166 37.0976 35.6834 37.0976 35.2929 36.7071L24 25.4142L12.7071 36.7071C12.3166 37.0976 11.6834 37.0976 11.2929 36.7071C10.9024 36.3166 10.9024 35.6834 11.2929 35.2929L22.5858 24L11.2929 12.7071C10.9024 12.3166 10.9024 11.6834 11.2929 11.2929Z" fill="#989898"/>
</svg>
